<svg xmlns="http://www.w3.org/2000/svg" width="320" height="240" viewBox="0 0 320 240" font-family="DejaVu Sans, Helvetica, Arial, sans-serif"><rect width="320" height="240" fill="#0E1116"/><text x="160" y="18" fill="#8A9199" font-size="13" text-anchor="middle" letter-spacing="2" font-weight="600">CLAUGE</text>
<text x="10" y="18" fill="#8A9199" font-size="13">2:32</text>
<circle cx="302" cy="14" r="6" fill="#2ECC71"/>
<path d="M 45.23 138.77 A 52 52 0 1 1 118.77 138.77" stroke="#272C34" stroke-width="12" fill="none" stroke-linecap="round"/>
<path d="M 45.23 138.77 A 52 52 0 0 1 60.60 54.61" stroke="#2ECC71" stroke-width="12" fill="none" stroke-linecap="round"/>
<text x="82" y="109" fill="#E6E8EB" font-size="20" font-weight="700" text-anchor="middle">41%</text>
<text x="82" y="179" fill="#8A9199" font-size="13" text-anchor="middle" letter-spacing="0.5">SESSION 5h</text>
<text x="82" y="202" fill="#E6E8EB" font-size="14" text-anchor="middle">2h 14m</text>
<path d="M 201.23 138.77 A 52 52 0 1 1 274.77 138.77" stroke="#272C34" stroke-width="12" fill="none" stroke-linecap="round"/>
<path d="M 201.23 138.77 A 52 52 0 1 1 277.01 67.61" stroke="#F1C40F" stroke-width="12" fill="none" stroke-linecap="round"/>
<text x="238" y="109" fill="#E6E8EB" font-size="20" font-weight="700" text-anchor="middle">68%</text>
<text x="238" y="179" fill="#8A9199" font-size="13" text-anchor="middle" letter-spacing="0.5">WEEKLY 7d</text>
<text x="238" y="202" fill="#E6E8EB" font-size="14" text-anchor="middle">3d 6h</text>
<text x="311" y="124" fill="#555B63" font-size="16">&#8250;</text>
<text x="4" y="124" fill="#555B63" font-size="16">&#8249;</text></svg>