<svg xmlns="http://www.w3.org/2000/svg" width="760" height="600" viewBox="0 0 760 600" font-family="Inter, -apple-system, Segoe UI, Roboto, Helvetica, Arial, sans-serif"><defs><linearGradient id="grad" x1="0" y1="1" x2="1" y2="0"><stop offset="0" stop-color="#D97757"/><stop offset="1" stop-color="#E8A05C"/></linearGradient></defs><rect width="760" height="600" fill="#0E1116"/><rect x="18" y="18" width="724" height="480" rx="34" fill="#0A0C10" stroke="#1C222B" stroke-width="2"/>
<rect x="60" y="60" width="640" height="480" rx="12" fill="#0E1116"/>
<clipPath id="clip"><rect x="60" y="60" width="640" height="480" rx="12"/></clipPath>
<g clip-path="url(#clip)" transform="translate(60,60)"><text x="26" y="52" fill="#F2EEE6" font-size="30" font-weight="800">Settings</text>
<rect x="26" y="74" width="588" height="84" rx="14" fill="#171B22"/>
<text x="50" y="106" fill="#F2EEE6" font-size="23" font-weight="600">Screen brightness</text>
<rect x="50" y="126" width="514" height="8" rx="4" fill="#2A313D"/>
<rect x="50" y="126" width="360" height="8" rx="4" fill="url(#grad)"/>
<circle cx="410" cy="130" r="11" fill="#F2EEE6"/>
<rect x="26" y="174" width="588" height="72" rx="14" fill="#171B22"/>
<text x="50" y="208" fill="#F2EEE6" font-size="23" font-weight="600">Software update</text>
<text x="588" y="216" fill="#8A8F98" font-size="21" text-anchor="end">0.4.0 ›</text>
<rect x="26" y="254" width="588" height="72" rx="14" fill="#171B22"/>
<text x="50" y="288" fill="#F2EEE6" font-size="23" font-weight="600">Wi-Fi</text>
<text x="588" y="296" fill="#8A8F98" font-size="21" text-anchor="end">Stone Cottage ›</text>
<text x="30" y="360" fill="#5B616B" font-size="17" font-weight="700" letter-spacing="1.5">DEVICE</text>
<rect x="26" y="374" width="588" height="72" rx="14" fill="#171B22"/>
<text x="50" y="408" fill="#E06A5A" font-size="23" font-weight="600">Factory reset</text></g>
<circle cx="690" cy="510" r="7" fill="#1E242E"/>
<text x="380" y="566" fill="#8A8F98" font-size="22" text-anchor="middle" font-weight="600" letter-spacing="0.5">Grouped settings</text></svg>