<svg xmlns="http://www.w3.org/2000/svg" width="760" height="600" viewBox="0 0 760 600" font-family="Inter, -apple-system, Segoe UI, Roboto, Helvetica, Arial, sans-serif"><defs><linearGradient id="grad" x1="0" y1="1" x2="1" y2="0"><stop offset="0" stop-color="#D97757"/><stop offset="1" stop-color="#E8A05C"/></linearGradient></defs><rect width="760" height="600" fill="#0E1116"/><rect x="18" y="18" width="724" height="480" rx="34" fill="#0A0C10" stroke="#1C222B" stroke-width="2"/>
<rect x="60" y="60" width="640" height="480" rx="12" fill="#0E1116"/>
<clipPath id="clip"><rect x="60" y="60" width="640" height="480" rx="12"/></clipPath>
<g clip-path="url(#clip)" transform="translate(60,60)"><text x="26" y="52" fill="#F2EEE6" font-size="30" font-weight="800">Software update</text>
<g transform="translate(120,210)"><line x1="-43.13" y1="43.13" x2="-52.33" y2="52.33" stroke="url(#grad)" stroke-opacity="1" stroke-width="4.4" stroke-linecap="round"/>
<line x1="-50.45" y1="34.29" x2="-61.20" y2="41.59" stroke="url(#grad)" stroke-opacity="1" stroke-width="4.4" stroke-linecap="round"/>
<line x1="-55.98" y1="24.23" x2="-67.91" y2="29.39" stroke="url(#grad)" stroke-opacity="1" stroke-width="4.4" stroke-linecap="round"/>
<line x1="-59.53" y1="13.31" x2="-72.22" y2="16.14" stroke="url(#grad)" stroke-opacity="1" stroke-width="4.4" stroke-linecap="round"/>
<line x1="-60.97" y1="1.92" x2="-73.96" y2="2.32" stroke="url(#grad)" stroke-opacity="1" stroke-width="4.4" stroke-linecap="round"/>
<line x1="-60.25" y1="-9.54" x2="-73.09" y2="-11.58" stroke="url(#grad)" stroke-opacity="1" stroke-width="4.4" stroke-linecap="round"/>
<line x1="-57.39" y1="-20.66" x2="-69.63" y2="-25.07" stroke="url(#grad)" stroke-opacity="1" stroke-width="4.4" stroke-linecap="round"/>
<line x1="-52.51" y1="-31.05" x2="-63.69" y2="-37.67" stroke="url(#grad)" stroke-opacity="1" stroke-width="4.4" stroke-linecap="round"/>
<line x1="-45.76" y1="-40.34" x2="-55.51" y2="-48.94" stroke="url(#grad)" stroke-opacity="1" stroke-width="4.4" stroke-linecap="round"/>
<line x1="-37.39" y1="-48.20" x2="-45.36" y2="-58.47" stroke="url(#grad)" stroke-opacity="1" stroke-width="4.4" stroke-linecap="round"/>
<line x1="-27.69" y1="-54.35" x2="-33.60" y2="-65.93" stroke="url(#grad)" stroke-opacity="1" stroke-width="4.4" stroke-linecap="round"/>
<line x1="-17.02" y1="-58.58" x2="-20.65" y2="-71.06" stroke="url(#grad)" stroke-opacity="1" stroke-width="4.4" stroke-linecap="round"/>
<line x1="-5.74" y1="-60.73" x2="-6.96" y2="-73.67" stroke="url(#grad)" stroke-opacity="1" stroke-width="4.4" stroke-linecap="round"/>
<line x1="5.74" y1="-60.73" x2="6.96" y2="-73.67" stroke="url(#grad)" stroke-opacity="1" stroke-width="4.4" stroke-linecap="round"/>
<line x1="17.02" y1="-58.58" x2="20.65" y2="-71.06" stroke="url(#grad)" stroke-opacity="1" stroke-width="4.4" stroke-linecap="round"/>
<line x1="27.69" y1="-54.35" x2="33.60" y2="-65.93" stroke="url(#grad)" stroke-opacity="1" stroke-width="4.4" stroke-linecap="round"/>
<line x1="37.39" y1="-48.20" x2="45.36" y2="-58.47" stroke="url(#grad)" stroke-opacity="1" stroke-width="4.4" stroke-linecap="round"/>
<line x1="45.76" y1="-40.34" x2="55.51" y2="-48.94" stroke="url(#grad)" stroke-opacity="1" stroke-width="4.4" stroke-linecap="round"/>
<line x1="52.51" y1="-31.05" x2="63.69" y2="-37.67" stroke="url(#grad)" stroke-opacity="1" stroke-width="4.4" stroke-linecap="round"/>
<line x1="57.39" y1="-20.66" x2="69.63" y2="-25.07" stroke="url(#grad)" stroke-opacity="1" stroke-width="4.4" stroke-linecap="round"/>
<line x1="60.25" y1="-9.54" x2="73.09" y2="-11.58" stroke="url(#grad)" stroke-opacity="1" stroke-width="4.4" stroke-linecap="round"/>
<line x1="60.97" y1="1.92" x2="73.96" y2="2.32" stroke="url(#grad)" stroke-opacity="1" stroke-width="4.4" stroke-linecap="round"/>
<line x1="59.53" y1="13.31" x2="72.22" y2="16.14" stroke="url(#grad)" stroke-opacity="1" stroke-width="4.4" stroke-linecap="round"/>
<line x1="55.98" y1="24.23" x2="67.91" y2="29.39" stroke="url(#grad)" stroke-opacity="1" stroke-width="4.4" stroke-linecap="round"/>
<line x1="50.45" y1="34.29" x2="61.20" y2="41.59" stroke="url(#grad)" stroke-opacity="1" stroke-width="4.4" stroke-linecap="round"/>
<line x1="43.13" y1="43.13" x2="52.33" y2="52.33" stroke="url(#grad)" stroke-opacity="1" stroke-width="4.4" stroke-linecap="round"/><text x="0" y="8" fill="#6FBF8B" font-size="34" font-weight="800" text-anchor="middle">✓</text></g>
<text x="250" y="150" fill="#F2EEE6" font-size="26" font-weight="700">Clauge 0.4.0</text>
<text x="250" y="188" fill="#6FBF8B" font-size="21" font-weight="600">You’re up to date</text>
<text x="250" y="228" fill="#8A8F98" font-size="18">Checks the release feed daily.</text>
<rect x="250" y="262" width="300" height="60" rx="14" fill="#171B22" stroke="#2A313D"/><text x="400" y="300" fill="#F2EEE6" font-size="22" font-weight="600" text-anchor="middle">Check for updates</text>
<rect x="60" y="372" width="554" height="8" rx="4" fill="#2A313D"/><rect x="60" y="372" width="360" height="8" rx="4" fill="url(#grad)"/>
<text x="60" y="410" fill="#8A8F98" font-size="17">Installing streams to slot 1, verifies SHA-256, then reboots.</text></g>
<circle cx="690" cy="510" r="7" fill="#1E242E"/>
<text x="380" y="566" fill="#8A8F98" font-size="22" text-anchor="middle" font-weight="600" letter-spacing="0.5">Over-the-air updates</text></svg>